<?xml version="1.0" encoding="UTF-8"?>
<svg id="Layer_1" data-name="Layer 1" xmlns="http://www.w3.org/2000/svg" viewBox="0 0 1920 1080">
  <defs>
    <style>
      .cls-1 {
        fill: #950d1b;
      }
    </style>
  </defs>
  <path class="cls-1" d="M80,1080c-.7,14.36-80,0-80,0V0h80s8.52,137.76,1.5,226.5c-12.11,153.16-22.51,306.38-21,406,1.96,70.59,17.61,136.62,10.5,240.5-5,73,11,166,9,207Z"/>
  <path class="cls-1" d="M1840,0c.7-14.36,80,0,80,0v1080h-80s-8.52-137.76-1.5-226.5c12.11-153.16,22.51-306.38,21-406-1.96-70.59-17.61-136.62-10.5-240.5,5-73-11-166-9-207Z"/>
</svg>