<svg xmlns="http://www.w3.org/2000/svg" version="1.1" xmlns:xlink="http://www.w3.org/1999/xlink" xmlns:svgjs="http://svgjs.dev/svgjs" width="100%" height="100%" viewBox="0 0 1000 600"><rect width="1000" height="600" x="0" y="0" fill="#ffd17b"/><g><circle r="166.66666666666666" cx="346.9388987223307" cy="369.1612071256885" fill="#950d1b" transform="matrix(0.6933953416563345,0,0,0.6933953416563347,0,44.02531102030193)"/><path d="M358.3610747177077 444.1612248235456L295.42694106441695 444.1612248235456Q294.5586775649187 444.1612248235456 294.5586775649187 442.0654163764807L294.5586775649187 442.0654163764807L294.5586775649187 440.77799118756946Q294.5586775649187 439.9396678087435 295.6365219091235 439.9396678087435Q296.6844261326559 439.9396678087435 298.72035433837607 439.3109252746241Q300.78622266476856 438.6821827405046 301.834126888301 438.4726018957981L301.834126888301 438.4726018957981Q312.58263020967655 436.0474521213373 312.58263020967655 426.2570326614772L312.58263020967655 426.2570326614772L312.58263020967655 315.1193047256944Q312.58263020967655 305.4187056278513 308.9898157289939 302.7540348880117Q305.42694136898365 300.05942402749974 296.0556835985364 300.05942402749974L296.0556835985364 300.05942402749974L291.2952044116319 300.05942402749974Q289.10957560255 300.05942402749974 289.10957560255 297.54445389102193L289.10957560255 297.54445389102193Q289.10957560255 296.07738797807644 290.456881032806 295.7480466506806L290.456881032806 295.7480466506806L291.2053840496149 295.7480466506806L350.24730201549943 294.16122025504575L360.8760448541856 294.16122025504575Q379.7383208777694 295.4187053232847 392.2532913188139 307.75403504029504Q404.7682617598584 320.059424636633 404.7682617598584 337.27499402323735Q404.7682617598584 354.49056340984157 392.4628721635204 368.47259976383145L392.4628721635204 368.47259976383145Q387.1035905631688 374.70014486368143 380.36706341188886 378.5324803097428Q373.63053626060895 382.36481575580433 367.1035899540355 382.4845762384938L367.1035899540355 382.4845762384938L335.5167626447007 381.2270911702549L334.6784392658747 381.2270911702549Q333.0916128702399 381.2270911702549 333.0916128702399 382.69415708320025L333.0916128702399 382.69415708320025L333.0916128702399 425.9576314547536Q333.0916128702399 431.7360747445182 336.26526566150955 434.4905658463749Q339.40897833210687 437.2151168275592 349.61855948138 438.80194322319403L349.61855948138 438.80194322319403Q350.99580503230834 439.0115240679005 354.0496973408886 439.4905659986582Q357.1035896494688 439.9396678087435 358.15149387300124 439.9396678087435Q359.1993980965337 439.9396678087435 359.1993980965337 440.77799118756946L359.1993980965337 440.77799118756946L359.1993980965337 443.3229014447196Q359.1993980965337 444.1612248235456 358.3610747177077 444.1612248235456L358.3610747177077 444.1612248235456ZM341.62454726186115 299.490561734725Q340.36706219362225 299.5504419760697 338.92993640134915 299.580382096742Q337.52275072974845 299.64026233808676 335.30718179999417 299.7001425794315Q333.0916128702399 299.76002282077616 333.0916128702399 301.4366695784281L333.0916128702399 301.4366695784281L333.0916128702399 369.31092314265743L333.3011937149464 372.4845759339271Q333.6305350423423 374.70014486368143 335.30718179999417 374.78996522569844L335.30718179999417 374.78996522569844L346.0556851213697 375.41870775981795Q363.0017934219228 375.41870775981795 373.36107517455775 364.0714020249952Q383.72035692719265 352.6941561695003 383.72035692719265 335.47858678289606Q383.72035692719265 318.26301739629173 373.6604763812813 308.8019392638275Q363.63053595604225 299.3109210106909 346.8940085001957 299.3109210106909L346.8940085001957 299.3109210106909Q345.39700246657793 299.3109210106909 344.13951739833897 299.37080125203556Q342.88203233010006 299.43068149338023 341.62454726186115 299.490561734725Z " fill="#ffd17b" transform="matrix(0.6933953416563345,0,0,0.6933953416563347,0,44.02531102030193)"/><path d="M655.025302959678 441.7754929094448L602.237761978668 441.7754929094448Q601.5094847719843 441.7754929094448 601.5094847719843 440.0175824105529L601.5094847719843 440.0175824105529L601.5094847719843 438.93772310409076Q601.5094847719843 438.23455890453397 602.4135530285572 438.23455890453397Q603.2925082780031 438.23455890453397 605.000192762641 437.7071857548665Q606.7329902544058 437.1798126051989 607.6119455038516 437.0040215553097L607.6119455038516 437.0040215553097Q616.6275150624543 434.9698679780205 616.6275150624543 426.75791464748283L616.6275150624543 426.75791464748283L616.6275150624543 333.5384321919598Q616.6275150624543 325.40181788280324 613.6139542072111 323.1667602484979Q610.6255063590949 320.9065896070655 602.7651351283356 320.9065896070655L602.7651351283356 320.9065896070655L598.7721669951383 320.9065896070655Q596.9389174748654 320.9065896070655 596.9389174748654 318.7970970083952L596.9389174748654 318.7970970083952Q596.9389174748654 317.56655965917093 598.0690027955816 317.2903165807736L598.0690027955816 317.2903165807736L598.6968279737572 317.2903165807736L648.2196780282538 315.9593272030412L657.1347955583483 315.9593272030412Q672.9559900483752 317.0140735023763 683.4532270274723 327.36063243871126Q693.9504640065694 337.6820783679192 693.9504640065694 352.12205746595953Q693.9504640065694 366.56203656399987 683.6290180773614 378.2898108923214L683.6290180773614 378.2898108923214Q679.1337898016237 383.5133163747429 673.4833631980426 386.72778128700236Q667.8329365944617 389.9422461992617 662.3583010407698 390.04269822776985L662.3583010407698 390.04269822776985L635.8640785217567 388.98795192843477L635.1609143222 388.98795192843477Q633.8299249444675 388.98795192843477 633.8299249444675 390.21848927765905L633.8299249444675 390.21848927765905L633.8299249444675 426.50678457621257Q633.8299249444675 431.3535949517287 636.4919036999323 433.66399160741514Q639.1287694482702 435.9492752559746 647.6923048785862 437.280264633707L647.6923048785862 437.280264633707Q648.8475032064295 437.4560556835962 651.4090299333863 437.8578637976286Q653.9705566603429 438.23455890453397 654.8495119097889 438.23455890453397Q655.7284671592348 438.23455890453397 655.7284671592348 438.93772310409076L655.7284671592348 438.93772310409076L655.7284671592348 441.072328709888Q655.7284671592348 441.7754929094448 655.025302959678 441.7754929094448L655.025302959678 441.7754929094448ZM640.9871319756702 320.4294424716519Q639.932385676335 320.479668485906 638.7269613342378 320.5047814930331Q637.5466499992675 320.5550075072871 635.6882874718675 320.6052335215411Q633.8299249444675 320.6554595357952 633.8299249444675 322.0617879349087L633.8299249444675 322.0617879349087L633.8299249444675 378.99297509187807L634.0057159943568 381.654953847343Q634.281959072754 383.5133163747429 635.6882874718675 383.58865539612395L635.6882874718675 383.58865539612395L644.7038570304701 384.11602854579155Q658.9178190643672 384.11602854579155 667.6069195303184 374.59819884464844Q676.2960199962696 365.05525613637826 676.2960199962696 350.61527703833804Q676.2960199962696 336.1752979402977 667.8580496015887 328.23958768815726Q659.4451922140348 320.27876442888976 645.4070212300268 320.27876442888976L645.4070212300268 320.27876442888976Q644.1513708736755 320.27876442888976 643.0966245743404 320.3289904431439Q642.0418782750053 320.3792164573979 640.9871319756702 320.4294424716519ZM706.9338886912423 402.0969416487427Q706.9338886912423 384.74385372396716 719.2643751906122 372.2375761747079Q731.5697486828554 359.7564116325757 748.7972715719956 359.7564116325757Q765.999681454009 359.7564116325757 778.7068630602845 371.8859940749296Q791.439157673687 384.0406895244105 791.439157673687 401.8709245845994Q791.439157673687 419.7011596447884 779.3849142527141 431.9311941156503Q767.3306708317413 444.16122858651227 749.148853671774 444.16122858651227Q730.9419235046797 444.16122858651227 718.937906097961 431.80562908001514Q706.9338886912423 419.4500295735181 706.9338886912423 402.0969416487427ZM728.9077699273906 424.82421309870176L728.9077699273906 424.82421309870176Q737.5717573862147 439.3897572323773 752.4888836196686 439.3897572323773L752.4888836196686 439.3897572323773Q764.0659799052279 439.3897572323773 770.1935536442223 430.12305760250445Q776.3211273832168 420.8563579726316 776.3211273832168 407.34556013829126Q776.3211273832168 393.8347623039508 767.7324789457738 379.6208002700538Q759.1187175012036 365.40683823615666 744.5531733675281 365.40683823615666L744.5531733675281 365.40683823615666Q733.8550323314147 365.40683823615666 727.7274585924202 374.6233118517755Q721.5998848534258 383.8648984745213 721.5998848534258 398.0286344941643Q721.5998848534258 412.1923705138074 728.9077699273906 424.82421309870176ZM857.9132875389265 378.4656019422106L857.9132875389265 378.4656019422106Q856.8585412395913 378.2898108923214 854.8243876623022 377.3355166214943L854.8243876623022 377.3355166214943Q847.4913895812105 373.9703736664728 843.347743405251 373.9703736664728Q839.2040972292917 373.9703736664728 834.6335299321728 379.1436531346403Q830.088075642181 384.29181959568075 830.088075642181 388.46057877876717L830.088075642181 388.46057877876717L830.088075642181 428.36514710361257Q830.088075642181 434.9698679780205 837.7726558230512 437.1798126051989L837.7726558230512 437.1798126051989Q841.1377987780728 438.05876785464477 844.0509076048078 438.4605759686773Q846.9640164315427 438.8623840827097 847.7927456667347 439.2139661824881Q848.6465879090537 439.5655482822664 848.6465879090537 440.5951815744745Q848.6465879090537 441.5997018595556 847.7676326596078 441.7754929094448L847.7676326596078 441.7754929094448L803.5185141017868 441.7754929094448Q802.6395588523409 441.5997018595556 802.6395588523409 440.5449555602205L802.6395588523409 440.5449555602205Q802.6395588523409 438.93772310409076 806.7832050283001 438.41034995442317L806.7832050283001 438.41034995442317Q816.3261477365703 437.0040215553097 816.3261477365703 428.36514710361257L816.3261477365703 428.36514710361257L816.3261477365703 381.654953847343Q816.3261477365703 377.938228792543 812.2578405819921 376.5319003934295L812.2578405819921 376.5319003934295Q810.4999300831001 375.9040752152538 808.465776505811 375.52738010834844Q806.431622928522 375.12557199431603 805.2513115935516 374.77398989453764Q804.0458872514542 374.42240779475924 803.74453116593 374.0959387021079Q803.4431750804057 373.7945826165836 803.4431750804057 372.79006233150255Q803.4431750804057 371.7604290392944 804.749051451011 371.05726483973774L804.749051451011 371.05726483973774L827.2754188439541 360.4595758321324Q828.330165143289 359.9322026824649 828.6064082216864 359.9322026824649L828.6064082216864 359.9322026824649Q830.088075642181 359.9322026824649 830.088075642181 362.04169528113516L830.088075642181 362.04169528113516L830.088075642181 376.3561093435403Q830.088075642181 377.4108556428755 830.6154487918485 377.4108556428755L830.6154487918485 377.4108556428755Q831.3437259985322 377.4108556428755 834.2568348252674 373.26720946691603L834.2568348252674 373.26720946691603Q842.6445792056942 361.51432213146757 848.1192147593862 361.51432213146757L848.1192147593862 361.51432213146757Q851.2081146360105 361.51432213146757 857.6119314534022 364.0005098370432Q863.9906352636671 366.46158453549185 863.9906352636671 368.14415601300254L863.9906352636671 368.14415601300254Q863.9906352636671 370.17830959029175 861.9815946935049 374.3219557662511Q859.9474411162156 378.4656019422106 857.9132875389265 378.4656019422106ZM918.2096176509175 373.8699216379647L891.6400561105232 373.8699216379647Q891.1126829608558 373.8699216379647 891.1126829608558 374.6735378660295L891.1126829608558 374.6735378660295L891.1126829608558 423.4178846995883Q891.1126829608558 428.71672920339086 893.4481926236693 431.7051770515071Q895.7837022864827 434.7187379067502 899.3999753127745 434.7187379067502Q903.0162483390665 434.7187379067502 905.7284531087854 433.513313564653Q908.4155448713772 432.33300222968273 910.3994724344124 430.92667383056926Q912.3833999974473 429.4952324243287 913.96551944645 428.31492108935845Q915.5727519025796 427.10949674726123 916.8032892518041 427.10949674726123Q918.0338266010284 427.10949674726123 918.0338266010284 427.73732192543685L918.0338266010284 427.73732192543685Q918.0338266010284 429.8468145241071 917.581792472742 430.47463970228273L917.581792472742 430.47463970228273Q907.0092164722636 444.16122858651227 897.1649176784691 444.16122858651227Q887.3206188846747 444.16122858651227 882.3231304663965 437.9332028190097Q877.3256420481181 431.7051770515071 877.3256420481181 423.0663025998099L877.3256420481181 423.0663025998099L877.3256420481181 373.8699216379647L870.72092117371 373.8699216379647Q868.2347334681346 373.8699216379647 868.1091684324994 372.287802188962Q867.9836033968642 370.70568273995934 868.586315567913 370.2536486116728L868.586315567913 370.2536486116728Q873.2824479006669 367.26520076355666 881.4692882240776 359.48016855417836L881.4692882240776 359.48016855417836Q882.3733564806504 358.5258742833514 883.855023901145 356.5670597274433Q885.3618043287667 354.6333581786622 888.2246871412477 351.2682152236407Q891.1126829608558 347.92818527574616 892.5943503813504 347.92818527574616Q894.101130808972 347.92818527574616 894.101130808972 349.15872262497044L894.101130808972 349.15872262497044Q894.101130808972 349.33451367485964 891.1126829608558 360.7358189105297L891.1126829608558 360.7358189105297Q891.1126829608558 362.3179383595324 892.5190113599693 362.39327738091345L892.5190113599693 362.39327738091345L915.0202657457852 362.39327738091345Q918.9127818504743 362.39327738091345 918.9127818504743 373.3425484882971L918.9127818504743 373.3425484882971Q918.9127818504743 373.8699216379647 918.2096176509175 373.8699216379647L918.2096176509175 373.8699216379647ZM975.5928389361735 440.3691645103313L975.5928389361735 440.3691645103313Q975.5928389361735 441.7754929094448 974.0107194871708 441.7754929094448L974.0107194871708 441.7754929094448L925.5426157320093 441.7754929094448Q924.6636604825634 441.5997018595556 924.6636604825634 440.5449555602205L924.6636604825634 440.5449555602205Q924.6636604825634 438.93772310409076 928.8073066585229 438.41034995442317L928.8073066585229 438.41034995442317Q938.350249366793 437.0040215553097 938.350249366793 428.36514710361257L938.350249366793 428.36514710361257L938.350249366793 374.8493289159187Q938.350249366793 373.8699216379647 937.2703900603309 373.8699216379647L937.2703900603309 373.8699216379647L927.6521083306797 373.8699216379647Q926.5973620313445 373.8699216379647 925.6179547533903 373.216983452662Q924.6636604825634 372.56404526735923 924.6636604825634 371.45907295377015Q924.6636604825634 370.35410064018095 925.7184067818986 369.7262754620052L925.7184067818986 369.7262754620052Q927.2251872095202 368.84732021255934 932.775161784593 367.34053978493773Q938.350249366793 365.8588723644432 938.350249366793 362.39327738091345L938.350249366793 362.39327738091345L938.350249366793 359.48016855417836Q938.350249366793 327.71221453848966 952.1121772724035 310.58514367785745L952.1121772724035 310.58514367785745Q959.7967574532737 300.9668619482063 975.5174999147924 295.7433564657847L975.5174999147924 295.7433564657847Q980.2638582618005 294.161237016782 984.9599905945544 294.161237016782Q989.6310099201813 294.161237016782 995.9092617019381 296.59719870810363Q1002.1624004765678 299.0080473922982 1002.1624004765678 302.44852936870086L1002.1624004765678 302.44852936870086Q1002.1624004765678 303.15169356825754 1001.9614964195515 303.7041797250522Q1001.7354793554083 304.2315528747197 1001.459236277011 305.01005609565755L1001.459236277011 305.01005609565755L997.8429632507192 312.79508830503585Q997.1397990511624 314.2014167041493 996.1603917732083 314.2014167041493L996.1603917732083 314.2014167041493Q995.9092617019381 314.2014167041493 992.3683276970272 311.4138729130494Q988.8273936921165 308.6263291219494 984.9097645803002 306.29081945913595Q980.9921354684842 303.95530979632247 975.6932909646815 303.95530979632247L975.6932909646815 303.95530979632247Q965.3467320283465 303.95530979632247 960.0478875245441 309.25415430012504Q954.7490430207414 314.5529988039277 953.443166650136 321.20794569258976Q952.1121772724035 327.88800558837886 952.1121772724035 335.92416786902743L952.1121772724035 335.92416786902743L952.1121772724035 361.6147741599757Q952.1121772724035 362.3179383595324 952.9911325218494 362.3179383595324L952.9911325218494 362.3179383595324L970.2186554109898 362.3179383595324Q972.6797301094383 362.3179383595324 973.4331203232492 362.79508549494597Q974.1865105370599 363.2973456374865 974.8896747366167 365.98443740007826Q975.5928389361735 368.67152916267014 975.5928389361735 370.93169980410255Q975.5928389361735 373.1667574384079 975.165917815014 373.5183395381863Q974.7138836867276 373.8699216379647 973.307555287614 373.8699216379647L973.307555287614 373.8699216379647L953.2673756002467 373.8699216379647Q952.1121772724035 373.8699216379647 952.1121772724035 374.77398989453764L952.1121772724035 374.77398989453764L952.1121772724035 426.58212359759364Q952.1121772724035 439.2139661824881 974.0107194871708 439.2139661824881L974.0107194871708 439.2139661824881Q975.5928389361735 439.3897572323773 975.5928389361735 440.3691645103313ZM982.825384988757 402.0969416487427Q982.825384988757 384.74385372396716 995.1558714881272 372.2375761747079Q1007.4612449803702 359.7564116325757 1024.6887678695107 359.7564116325757Q1041.891177751524 359.7564116325757 1054.6234723649263 371.8859940749296Q1067.330653971202 384.0406895244105 1067.330653971202 401.8709245845994Q1067.330653971202 419.7011596447884 1055.2764105502292 431.9311941156503Q1043.2221671292564 444.16122858651227 1025.0403499692889 444.16122858651227Q1006.8585328093217 444.16122858651227 994.8545154026029 431.80562908001514Q982.825384988757 419.4500295735181 982.825384988757 402.0969416487427ZM1004.8243792320326 424.82421309870176L1004.8243792320326 424.82421309870176Q1013.4632536837297 439.3897572323773 1028.3803799171837 439.3897572323773L1028.3803799171837 439.3897572323773Q1039.9574762027428 439.3897572323773 1046.0850499417375 430.12305760250445Q1052.237736687859 420.8563579726316 1052.237736687859 407.34556013829126Q1052.237736687859 393.8347623039508 1043.623975243289 379.6208002700538Q1035.0102137987187 365.40683823615666 1020.4446696650431 365.40683823615666L1020.4446696650431 365.40683823615666Q1009.7716416360569 365.40683823615666 1003.6189548899353 374.6233118517755Q997.4913811509408 383.8648984745213 997.4913811509408 398.0286344941643Q997.4913811509408 412.1923705138074 1004.8243792320326 424.82421309870176ZM1112.709857849739 438.41034995442317L1112.709857849739 438.41034995442317Q1116.8535040256984 438.93772310409076 1116.8535040256984 440.5449555602205L1116.8535040256984 440.5449555602205Q1116.8535040256984 441.5997018595556 1115.9745487762525 441.7754929094448L1115.9745487762525 441.7754929094448L1076.5973536010747 441.7754929094448Q1075.7183983516288 441.5997018595556 1075.7183983516288 440.5449555602205L1075.7183983516288 440.5449555602205Q1075.7183983516288 438.93772310409076 1079.8620445275883 438.41034995442317L1079.8620445275883 438.41034995442317Q1089.4049872358582 437.0040215553097 1089.4049872358582 428.36514710361257L1089.4049872358582 428.36514710361257L1089.4049872358582 318.2697238587276Q1089.4049872358582 314.5529988039277 1085.33668008128 313.14667040481424L1085.33668008128 313.14667040481424Q1083.5787695823883 312.5188452266385 1081.5446160050988 312.1170371126061Q1079.5104624278097 311.7152289985737 1078.3301510928395 311.3636468987953Q1077.1247267507424 311.0120647990169 1076.8233706652181 310.71070871349264Q1076.5220145796934 310.40935262796825 1076.5220145796934 309.3797193357602Q1076.5220145796934 308.37519905067916 1077.8278909502992 307.67203485112236L1077.8278909502992 307.67203485112236L1100.3542583432418 297.0743458435171Q1101.4090046425772 296.5469726938496 1101.6601347138471 296.5469726938496L1101.6601347138471 296.5469726938496Q1103.166915141469 296.5469726938496 1103.166915141469 298.6564652925198L1103.166915141469 298.6564652925198L1103.166915141469 428.36514710361257Q1103.166915141469 437.0040215553097 1112.709857849739 438.41034995442317ZM1165.4973988307493 441.7754929094448L1126.1202036555715 441.7754929094448Q1125.2412484061256 441.5997018595556 1125.2412484061256 440.5449555602205L1125.2412484061256 440.5449555602205Q1125.2412484061256 438.93772310409076 1129.3848945820846 438.41034995442317L1129.3848945820846 438.41034995442317Q1138.927837290355 437.0040215553097 1138.927837290355 428.36514710361257L1138.927837290355 428.36514710361257L1138.927837290355 381.654953847343Q1138.927837290355 377.938228792543 1134.8595301357768 376.5319003934295L1134.8595301357768 376.5319003934295Q1133.1016196368846 375.9040752152538 1131.0674660595955 375.52738010834844Q1129.0333124823064 375.12557199431603 1127.8530011473363 374.77398989453764Q1126.6475768052387 374.42240779475924 1126.3462207197144 374.0959387021079Q1126.0448646341902 373.7945826165836 1126.0448646341902 372.79006233150255Q1126.0448646341902 371.7604290392944 1127.3758540119225 371.05726483973774L1127.3758540119225 371.05726483973774L1149.8771083977385 360.4595758321324Q1150.9318546970735 359.9322026824649 1151.2080977754708 359.9322026824649L1151.2080977754708 359.9322026824649Q1152.6897651959653 359.9322026824649 1152.6897651959653 362.04169528113516L1152.6897651959653 362.04169528113516L1152.6897651959653 428.36514710361257Q1152.6897651959653 437.0040215553097 1162.2327079042357 438.41034995442317L1162.2327079042357 438.41034995442317Q1166.3763540801951 438.93772310409076 1166.3763540801951 440.2687124818232Q1166.3763540801951 441.5997018595556 1165.4973988307493 441.7754929094448L1165.4973988307493 441.7754929094448ZM1144.528037879682 335.1205516409625Q1140.8615388391358 335.1205516409625 1138.099108055163 332.83526799240315Q1135.3115642640628 330.5248713367166 1135.3115642640628 326.43145117501126Q1135.3115642640628 322.31291800617896 1137.9484300124009 319.92718232911136Q1140.6104087678655 317.56655965917093 1144.2769078084116 317.56655965917093Q1147.9434068489572 317.56655965917093 1150.4547075616601 320.3792164573979Q1152.9660082743626 323.2169862627519 1152.9660082743626 326.4816771892654Q1152.9660082743626 329.74636811577886 1150.5802725972953 332.4334598783706Q1148.1945369202276 335.1205516409625 1144.528037879682 335.1205516409625ZM1177.426077216087 402.0969416487427Q1177.426077216087 384.74385372396716 1189.7314507083297 372.2375761747079Q1202.0619372076999 359.7564116325757 1219.2643470897133 359.7564116325757Q1236.4918699788536 359.7564116325757 1249.199051585129 371.8859940749296Q1261.9062331914047 384.0406895244105 1261.9062331914047 401.8709245845994Q1261.9062331914047 419.7011596447884 1249.8519897704318 431.9311941156503Q1237.822859356586 444.16122858651227 1219.6159291894915 444.16122858651227Q1201.4341120295244 444.16122858651227 1189.4300946228054 431.80562908001514Q1177.426077216087 419.4500295735181 1177.426077216087 402.0969416487427ZM1199.3999584522348 424.82421309870176L1199.3999584522348 424.82421309870176Q1208.0639459110594 439.3897572323773 1222.9810721445133 439.3897572323773L1222.9810721445133 439.3897572323773Q1234.5330554229454 439.3897572323773 1240.685742169067 430.12305760250445Q1246.8133159080617 420.8563579726316 1246.8133159080617 407.34556013829126Q1246.8133159080617 393.8347623039508 1238.1995544634915 379.6208002700538Q1229.6109060260483 365.40683823615666 1215.045361892373 365.40683823615666L1215.045361892373 365.40683823615666Q1204.3472208562594 365.40683823615666 1198.2196471172647 374.6233118517755Q1192.066960371143 383.8648984745213 1192.066960371143 398.0286344941643Q1192.066960371143 412.1923705138074 1199.3999584522348 424.82421309870176Z " fill="#950d1b" transform="matrix(0.6933953416563345,0,0,0.6933953416563347,0,44.02531102030193)"/></g></svg>